<?xml version="1.0" encoding="UTF-8" standalone="no"?>
<!-- Created with Inkscape (http://www.inkscape.org/) -->

<svg
   xmlns:dc="http://purl.org/dc/elements/1.1/"
   xmlns:cc="http://creativecommons.org/ns#"
   xmlns:rdf="http://www.w3.org/1999/02/22-rdf-syntax-ns#"
   xmlns:svg="http://www.w3.org/2000/svg"
   xmlns="http://www.w3.org/2000/svg"
   xmlns:sodipodi="http://sodipodi.sourceforge.net/DTD/sodipodi-0.dtd"
   xmlns:inkscape="http://www.inkscape.org/namespaces/inkscape"
   width="32"
   height="32"
   viewBox="0 0 32 32"
   id="svg2"
   version="1.1"
   inkscape:version="0.91 r13725"
   sodipodi:docname="icon_32.svg"
   inkscape:export-filename="/home/aeva/science/nw2tiled/icon_64.png"
   inkscape:export-xdpi="11.25"
   inkscape:export-ydpi="11.25">
  <defs
     id="defs4" />
  <sodipodi:namedview
     id="base"
     pagecolor="#ffffff"
     bordercolor="#666666"
     borderopacity="1.0"
     inkscape:pageopacity="0.0"
     inkscape:pageshadow="2"
     inkscape:zoom="14.429398"
     inkscape:cx="19.038151"
     inkscape:cy="17.651464"
     inkscape:document-units="px"
     inkscape:current-layer="layer2"
     showgrid="false"
     units="px"
     inkscape:window-width="1600"
     inkscape:window-height="833"
     inkscape:window-x="0"
     inkscape:window-y="30"
     inkscape:window-maximized="1" />
  <metadata
     id="metadata7">
    <rdf:RDF>
      <cc:Work
         rdf:about="">
        <dc:format>image/svg+xml</dc:format>
        <dc:type
           rdf:resource="http://purl.org/dc/dcmitype/StillImage" />
        <dc:title></dc:title>
      </cc:Work>
    </rdf:RDF>
  </metadata>
  <g
     inkscape:label="Layer 1"
     inkscape:groupmode="layer"
     id="layer1"
     transform="translate(0,-1020.3621)"
     style="display:inline">
    <rect
       style="opacity:1;fill:#ffffff;fill-opacity:1;stroke:none"
       id="rect47681-7"
       width="30"
       height="30"
       x="1"
       y="1021.3622"
       ry="1.047228" />
  </g>
  <g
     inkscape:groupmode="layer"
     id="layer2"
     inkscape:label="Layer 2"
     style="display:inline"
     transform="translate(0,-480)">
    <g
       style="font-style:normal;font-variant:normal;font-weight:600;font-stretch:semi-expanded;font-size:320px;line-height:125%;font-family:itsadzokeS01;-inkscape-font-specification:'itsadzokeS01, Semi-Bold Semi-Expanded';text-align:start;letter-spacing:0px;word-spacing:0px;writing-mode:lr-tb;text-anchor:start;fill:#ffffff;fill-opacity:1;stroke:none;stroke-width:1px;stroke-linecap:butt;stroke-linejoin:miter;stroke-opacity:1"
       id="text4136"
       transform="translate(0,-540.36213)" />
    <path
       style="display:inline;opacity:1;fill:#000000;fill-opacity:1;stroke:none"
       mask="none"
       d="M 2.0472279,481.00014 C 1.4670636,481.00014 1,481.4672 1,482.04736 l 0,0.65968 c 0.032067,-0.004 0.065387,-0.005 0.1001027,-0.005 l 2.8413755,0 c 0.4851129,0 0.6699179,0.13861 0.9240244,0.43891 l 3.6267965,4.20429 2.1021559,2.35626 c 4.181211,4.5277 4.366016,4.7587 4.52772,4.7587 0.138604,0 0.161704,-0.1155 0.161704,-0.231 0.0231,-0.83162 0.0462,-1.64014 0.0462,-2.47176 0,-2.35625 -0.0693,-4.6201 -0.207905,-6.88395 -0.0462,-0.99332 -0.485113,-1.01642 -1.50154,-1.13192 -0.161704,-0.0231 -0.508214,-0.0924 -0.508214,-0.48512 0,-0.231 0.161705,-0.55441 0.669918,-0.55441 0.207906,0 0.877824,0.0693 2.21766,0.0693 1.316734,0 1.963552,-0.0693 2.171457,-0.0693 0.254107,0 0.485113,0.13861 0.485113,0.53131 0,1.20123 -2.102156,-0.34651 -2.102156,1.89425 -0.0462,2.07904 -0.0924,4.18119 -0.0924,6.26023 0,0.81527 0.0046,1.52592 0.01094,2.17602 0.388789,0.0205 0.993593,0.0494 1.929502,0.0494 l 0.0231,0 c 1.409138,0 2.125257,-0.0693 2.356263,-0.0693 0.323409,0 0.39271,0.20791 0.39271,0.50821 0,0.46201 -0.231006,0.43891 -0.993326,0.53131 -0.369609,0.0462 -0.716119,0.1386 -0.716119,0.57752 0,0.0924 0.0231,0.1848 0.04621,0.3003 1.617043,4.87421 3.857803,10.27973 4.15811,10.69554 0.0693,0.0924 0.161705,0.2079 0.277208,0.2079 l 0.0231,0 c 0.207906,0 0.323409,-0.2772 0.36961,-0.4158 2.286961,-4.82801 3.811601,-10.21043 3.811601,-10.71864 0,-0.57752 -0.531314,-0.53131 -1.52464,-0.64682 -0.415811,-0.0462 -0.462013,-0.25411 -0.462013,-0.53131 0,-0.2772 0.0693,-0.50821 0.415812,-0.50821 0.231006,0 0.924024,0.0693 2.333162,0.0693 l 0.0231,0 c 1.066122,0 1.717836,-0.0421 2.063655,-0.0605 l 0,-11.50514 C 31,481.46706 30.532936,481 29.952772,481 L 2.0472304,481 Z M 1,483.81033 1,497.67907 c 0.050761,-0.0762 0.1203321,-0.14046 0.2156057,-0.16977 0.5082135,-0.1617 1.5939424,0.0231 1.9635521,-0.73922 0.1155034,-0.27721 0.092403,-0.2079 0.6468173,-10.85724 l 0,-0.0693 0,-0.0231 c 0,-0.20791 -0.0231,-0.34651 -0.7623202,-1.01643 -0.1617044,-0.1617 -0.7854209,-0.90091 -2.0559547,-0.99332 -0.00264,0 -0.00507,-3e-4 -0.0077,-3e-4 z m 4.0503075,3.09584 c -0.046202,0 -0.069301,0.0693 -0.092402,0.0924 -0.1848049,2.70276 -0.300308,5.38241 -0.300308,8.20068 l 0,0.66991 c 0,1.20123 0.069302,1.43223 1.0395275,1.50153 0.3003077,0 1.2474333,0.11551 1.4091371,0.16171 0.092403,0.0462 0.3003087,0.1155 0.3003087,0.60061 0,0.25411 -0.1386038,0.43892 -0.3927106,0.43892 -0.092403,0 -1.3167352,-0.13861 -2.8182749,-0.13861 -1.5246406,0 -2.7258726,0.13861 -2.8413757,0.13861 -0.1429265,0 -0.2671266,-0.0494 -0.3542094,-0.135 l 0,11.51585 C 1,510.53294 1.4670636,511 2.0472279,511 l 27.9055421,0 c 0.580164,0 1.047228,-0.46706 1.047228,-1.04722 l 0,-15.34368 c -0.370533,0.0462 -0.81738,0.0708 -1.070329,0.52855 -0.161704,0.3003 -1.778747,5.68273 -5.544147,13.7217 -0.300308,0.66992 -0.554415,1.10883 -0.947125,1.10883 -0.462012,0 -0.762321,-0.64682 -0.970226,-1.22433 -2.748973,-6.95325 -2.725872,-6.99946 -2.841376,-6.99946 -0.0462,0 -0.0693,0.0462 -0.0924,0.0924 -3.141684,8.13139 -2.956879,7.90038 -3.303387,8.06209 -0.0693,0.0462 -0.138605,0.0693 -0.207907,0.0693 -0.508213,0 -0.669918,-0.76232 -0.900924,-1.29363 -3.141683,-7.69247 -4.666323,-13.07489 -4.851128,-13.56001 -0.3003089,-0.71611 -1.0164277,-0.2079 -1.3398359,-0.60061 -0.0231,-0.0231 -0.1155033,-0.1386 -0.1155033,-0.3234 0,-0.25411 0.1155033,-0.64682 0.5775159,-0.64682 0.1803271,0 0.7099793,0.052 1.7211153,0.0658 l -0.935695,-1.06683 C 5.51232,487.34508 5.1427103,486.90617 5.0503075,486.90617 Z m 11.4355265,7.70702 c 0.02738,1.79818 0.06858,2.83211 0.06858,3.26572 0,0.3234 0,1.08572 -0.462013,1.08572 -0.231006,0 -0.485112,-0.231 -1.13193,-0.97022 l -2.4696,-2.81561 c 0.005,0.0964 0.02668,0.17825 0.06714,0.25915 1.316734,4.13499 1.709445,5.15142 3.603695,10.23353 0.0693,0.18481 0.207906,0.41581 0.346509,0.41581 0.254108,0 0.184805,0 2.471766,-5.77513 0.0231,-0.0924 0.04621,-0.1848 0.04621,-0.2772 l 0,-0.0231 c 0,-0.1848 -0.0231,-0.20791 -1.524642,-4.5508 -0.246931,-0.7218 -0.261298,-0.80319 -1.015704,-0.84786 z"
       id="rect47681"
       inkscape:connector-curvature="0" />
  </g>
</svg>
