<?xml version="1.0" encoding="UTF-8" standalone="no"?>
<!-- Created with Inkscape (http://www.inkscape.org/) -->

<svg
   xmlns:dc="http://purl.org/dc/elements/1.1/"
   xmlns:cc="http://creativecommons.org/ns#"
   xmlns:rdf="http://www.w3.org/1999/02/22-rdf-syntax-ns#"
   xmlns:svg="http://www.w3.org/2000/svg"
   xmlns="http://www.w3.org/2000/svg"
   xmlns:sodipodi="http://sodipodi.sourceforge.net/DTD/sodipodi-0.dtd"
   xmlns:inkscape="http://www.inkscape.org/namespaces/inkscape"
   width="16"
   height="16"
   viewBox="0 0 16 16"
   id="svg2"
   version="1.1"
   inkscape:version="0.91 r13725"
   sodipodi:docname="icon_16.svg"
   inkscape:export-filename="/home/aeva/science/nw2tiled/icon_64.png"
   inkscape:export-xdpi="11.25"
   inkscape:export-ydpi="11.25">
  <defs
     id="defs4" />
  <sodipodi:namedview
     id="base"
     pagecolor="#ffffff"
     bordercolor="#666666"
     borderopacity="1.0"
     inkscape:pageopacity="0.0"
     inkscape:pageshadow="2"
     inkscape:zoom="8"
     inkscape:cx="-2.429412"
     inkscape:cy="1.8815772"
     inkscape:document-units="px"
     inkscape:current-layer="layer2"
     showgrid="false"
     units="px"
     inkscape:window-width="1600"
     inkscape:window-height="833"
     inkscape:window-x="0"
     inkscape:window-y="30"
     inkscape:window-maximized="1" />
  <metadata
     id="metadata7">
    <rdf:RDF>
      <cc:Work
         rdf:about="">
        <dc:format>image/svg+xml</dc:format>
        <dc:type
           rdf:resource="http://purl.org/dc/dcmitype/StillImage" />
        <dc:title></dc:title>
      </cc:Work>
    </rdf:RDF>
  </metadata>
  <g
     inkscape:label="Layer 1"
     inkscape:groupmode="layer"
     id="layer1"
     transform="translate(0,-1036.3621)"
     style="display:inline">
    <rect
       style="opacity:1;fill:#ffffff;fill-opacity:1;stroke:none"
       id="rect47681-7"
       width="14"
       height="13.999962"
       x="1"
       y="1037.3622"
       ry="0.48870504" />
  </g>
  <g
     inkscape:groupmode="layer"
     id="layer2"
     inkscape:label="Layer 2"
     style="display:inline"
     transform="translate(0,-496)">
    <g
       style="font-style:normal;font-variant:normal;font-weight:600;font-stretch:semi-expanded;font-size:320px;line-height:125%;font-family:itsadzokeS01;-inkscape-font-specification:'itsadzokeS01, Semi-Bold Semi-Expanded';text-align:start;letter-spacing:0px;word-spacing:0px;writing-mode:lr-tb;text-anchor:start;fill:#ffffff;fill-opacity:1;stroke:none;stroke-width:1px;stroke-linecap:butt;stroke-linejoin:miter;stroke-opacity:1"
       id="text4136"
       transform="translate(0,-540.36213)" />
    <path
       style="display:inline;opacity:1;fill:#000000;fill-opacity:1;stroke:none"
       mask="none"
       d="M 1.4887064,497.00015 C 1.217963,497.00015 1,497.21811 1,497.48885 l 0,0.30785 c 0.014965,-0.002 0.030514,-0.002 0.046715,-0.002 l 1.3259752,0 c 0.226386,0 0.3126284,0.0647 0.4312114,0.20482 l 1.692505,1.962 0.9810061,1.09958 c 1.9512318,2.11292 2.0374742,2.22072 2.112936,2.22072 0.064682,0 0.075462,-0.0539 0.075462,-0.1078 0.01078,-0.38809 0.02156,-0.76539 0.02156,-1.15348 0,-1.09958 -0.03234,-2.15604 -0.097022,-3.2125 -0.02156,-0.46355 -0.2263861,-0.47433 -0.7007187,-0.52823 -0.075462,-0.0108 -0.2371665,-0.0431 -0.2371665,-0.22639 0,-0.1078 0.075462,-0.25872 0.3126284,-0.25872 0.097023,0 0.4096512,0.0323 1.034908,0.0323 0.6144758,0 0.9163242,-0.0323 1.0133466,-0.0323 0.1185832,0 0.226386,0.0647 0.226386,0.24794 0,0.56057 -0.9810061,-0.1617 -0.9810061,0.88398 -0.02156,0.97022 -0.04312,1.95122 -0.04312,2.92143 0,0.38046 0.00215,0.7121 0.00511,1.01548 0.1814349,0.01 0.4636768,0.0231 0.9004343,0.0231 l 0.01078,0 c 0.6575977,0 0.9917873,-0.0323 1.0995903,-0.0323 0.150924,0 0.183264,0.097 0.183264,0.23716 0,0.21561 -0.107804,0.20483 -0.4635524,0.24795 -0.1724842,0.0216 -0.3341888,0.0647 -0.3341888,0.26951 0,0.0431 0.01078,0.0862 0.021565,0.14014 0.7546202,2.27462 1.8003082,4.79719 1.9404512,4.99123 0.03234,0.0431 0.07546,0.097 0.129364,0.097 l 0.01078,0 c 0.09702,0 0.150924,-0.12936 0.172485,-0.19404 1.067248,-2.25306 1.778747,-4.76485 1.778747,-5.00201 0,-0.26951 -0.247947,-0.24795 -0.711499,-0.30185 -0.194045,-0.0216 -0.215606,-0.11859 -0.215606,-0.24795 0,-0.12936 0.03234,-0.23716 0.194046,-0.23716 0.107802,0 0.431211,0.0323 1.088809,0.0323 l 0.01078,0 c 0.497523,0 0.801656,-0.0197 0.963039,-0.0282 l 0,-5.36905 c -5e-6,-0.27093 -0.217968,-0.48889 -0.488711,-0.48889 l -13.0225865,0 z M 1,498.31157 l 0,6.47206 c 0.023689,-0.0356 0.056155,-0.0656 0.100616,-0.0792 0.2371663,-0.0755 0.7438398,0.0108 0.9163243,-0.34497 0.053902,-0.12936 0.043121,-0.097 0.3018481,-5.0667 l 0,-0.0323 0,-0.0108 c 0,-0.097 -0.01078,-0.16171 -0.3557494,-0.47434 -0.075462,-0.0755 -0.3665298,-0.42042 -0.9594456,-0.46355 -0.00123,0 -0.00237,-1.4e-4 -0.00359,-1.4e-4 z m 1.8901435,1.44472 c -0.021561,0 -0.032341,0.0323 -0.043121,0.0431 -0.086242,1.26128 -0.1401438,2.51178 -0.1401438,3.82697 l 0,0.31262 c 0,0.56058 0.032341,0.66838 0.4851129,0.70072 0.1401436,0 0.5821355,0.0539 0.6575973,0.0755 0.043121,0.0216 0.140144,0.0539 0.140144,0.28029 0,0.11858 -0.064682,0.20482 -0.1832649,0.20482 -0.043121,0 -0.6144764,-0.0647 -1.315195,-0.0647 -0.7114989,0 -1.2720738,0.0647 -1.3259753,0.0647 -0.066699,0 -0.1246591,-0.0231 -0.1652977,-0.063 l 0,5.37405 c 0,0.27074 0.217963,0.4887 0.4887064,0.4887 l 13.0225866,0 c 0.270743,0 0.488706,-0.21796 0.488706,-0.4887 l 0,-7.16036 c -0.172915,0.0216 -0.381444,0.033 -0.499487,0.24665 -0.07546,0.14014 -0.830082,2.65194 -2.587268,6.40345 -0.140144,0.31263 -0.258727,0.51745 -0.441992,0.51745 -0.215606,0 -0.35575,-0.30185 -0.452772,-0.57135 -1.2828543,-3.24484 -1.2720738,-3.26641 -1.3259757,-3.26641 -0.02156,0 -0.03234,0.0216 -0.04312,0.0431 -1.4661192,3.79464 -1.3798768,3.68684 -1.5415806,3.7623 -0.03234,0.0216 -0.064682,0.0323 -0.097023,0.0323 -0.2371661,0 -0.3126284,-0.35575 -0.4204312,-0.60369 -1.4661188,-3.58981 -2.1776174,-6.1016 -2.2638598,-6.32799 -0.1401441,-0.33418 -0.4743329,-0.097 -0.6252567,-0.28028 -0.01078,-0.0108 -0.053902,-0.0647 -0.053902,-0.15092 0,-0.11859 0.053902,-0.30185 0.2695075,-0.30185 0.084153,0 0.3313236,0.0243 0.8031871,0.0307 l -0.4366577,-0.49785 c -2.1776188,-2.42554 -2.3501033,-2.63036 -2.3932246,-2.63036 z m 5.336579,3.5966 c 0.012777,0.83915 0.032004,1.32164 0.032004,1.524 0,0.15092 0,0.50666 -0.215606,0.50666 -0.1078028,0 -0.2263856,-0.1078 -0.528234,-0.45276 l -1.15248,-1.31395 c 0.00233,0.045 0.012451,0.0832 0.031332,0.12093 0.6144758,1.92966 0.797741,2.40399 1.6817243,4.77564 0.03234,0.0862 0.097023,0.19404 0.1617042,0.19404 0.1185837,0 0.086242,0 1.1534908,-2.69505 0.01078,-0.0431 0.021565,-0.0862 0.021565,-0.12936 l 0,-0.0108 c 0,-0.0862 -0.01078,-0.097 -0.7114996,-2.1237 -0.1152345,-0.33684 -0.1219391,-0.37482 -0.4739952,-0.39567 z"
       id="rect47681"
       inkscape:connector-curvature="0" />
  </g>
</svg>
