<?xml version="1.0" encoding="UTF-8" standalone="no"?>
<!-- Created with Inkscape (http://www.inkscape.org/) -->

<svg
   xmlns:dc="http://purl.org/dc/elements/1.1/"
   xmlns:cc="http://creativecommons.org/ns#"
   xmlns:rdf="http://www.w3.org/1999/02/22-rdf-syntax-ns#"
   xmlns:svg="http://www.w3.org/2000/svg"
   xmlns="http://www.w3.org/2000/svg"
   xmlns:sodipodi="http://sodipodi.sourceforge.net/DTD/sodipodi-0.dtd"
   xmlns:inkscape="http://www.inkscape.org/namespaces/inkscape"
   width="64"
   height="64"
   viewBox="0 0 64 64.000001"
   id="svg2"
   version="1.1"
   inkscape:version="0.91 r13725"
   sodipodi:docname="icon_64.svg"
   inkscape:export-filename="/home/aeva/science/nw2tiled/icon_64.png"
   inkscape:export-xdpi="11.25"
   inkscape:export-ydpi="11.25">
  <defs
     id="defs4" />
  <sodipodi:namedview
     id="base"
     pagecolor="#ffffff"
     bordercolor="#666666"
     borderopacity="1.0"
     inkscape:pageopacity="0.0"
     inkscape:pageshadow="2"
     inkscape:zoom="10.203125"
     inkscape:cx="32"
     inkscape:cy="32"
     inkscape:document-units="px"
     inkscape:current-layer="layer2"
     showgrid="false"
     units="px"
     inkscape:window-width="1600"
     inkscape:window-height="833"
     inkscape:window-x="0"
     inkscape:window-y="30"
     inkscape:window-maximized="1" />
  <metadata
     id="metadata7">
    <rdf:RDF>
      <cc:Work
         rdf:about="">
        <dc:format>image/svg+xml</dc:format>
        <dc:type
           rdf:resource="http://purl.org/dc/dcmitype/StillImage" />
        <dc:title></dc:title>
      </cc:Work>
    </rdf:RDF>
  </metadata>
  <g
     inkscape:label="Layer 1"
     inkscape:groupmode="layer"
     id="layer1"
     transform="translate(0,-988.36213)"
     style="display:inline">
    <rect
       style="opacity:1;fill:#ffffff;fill-opacity:1;stroke:none"
       id="rect47681-7"
       width="62"
       height="61.999672"
       x="1"
       y="989.36249"
       ry="2.1642597" />
  </g>
  <g
     inkscape:groupmode="layer"
     id="layer2"
     inkscape:label="Layer 2"
     style="display:inline"
     transform="translate(0,-448)">
    <g
       style="font-style:normal;font-variant:normal;font-weight:600;font-stretch:semi-expanded;font-size:320px;line-height:125%;font-family:itsadzokeS01;-inkscape-font-specification:'itsadzokeS01, Semi-Bold Semi-Expanded';text-align:start;letter-spacing:0px;word-spacing:0px;writing-mode:lr-tb;text-anchor:start;fill:#ffffff;fill-opacity:1;stroke:none;stroke-width:1px;stroke-linecap:butt;stroke-linejoin:miter;stroke-opacity:1"
       id="text4136"
       transform="translate(0,-540.36213)" />
    <path
       style="display:inline;opacity:1;fill:#000000;fill-opacity:1;stroke:none"
       mask="none"
       d="M 3.1642711,449.00033 C 1.9652649,449.00033 1,449.96559 1,451.16459 l 0,1.36335 c 0.066272,-0.008 0.1351342,-0.011 0.2068789,-0.011 l 5.8721765,0 c 1.0025667,0 1.3844972,0.28645 1.9096507,0.90707 l 7.4953799,8.68887 4.344456,4.86959 c 8.641171,9.35724 9.023101,9.83465 9.357289,9.83465 0.286448,0 0.334189,-0.2387 0.334189,-0.47741 0.04774,-1.71868 0.09549,-3.38962 0.09549,-5.10829 0,-4.86958 -0.143224,-9.5482 -0.429671,-14.22682 -0.09549,-2.05287 -1.002567,-2.10061 -3.103183,-2.33931 -0.334189,-0.0477 -1.050308,-0.19097 -1.050308,-1.00257 0,-0.47741 0.334189,-1.14578 1.384497,-1.14578 0.429671,0 1.814169,0.14322 4.583163,0.14322 2.721252,0 4.058008,-0.14322 4.487679,-0.14322 0.525154,0 1.002567,0.28645 1.002567,1.09804 0,2.48253 -4.344456,-0.71612 -4.344456,3.91477 -0.09548,4.29669 -0.190965,8.64112 -0.190965,12.93781 0,1.68488 0.0095,3.15356 0.02262,4.4971 0.803498,0.0424 2.053425,0.10201 3.987639,0.10201 l 0.04774,0 c 2.912218,0 4.392198,-0.14323 4.869609,-0.14323 0.668379,0 0.811602,0.42968 0.811602,1.05031 0,0.95482 -0.477413,0.90707 -2.052874,1.09804 -0.76386,0.0955 -1.47998,0.28644 -1.47998,1.19353 0,0.19096 0.04774,0.38193 0.09549,0.62063 3.34189,10.07336 7.972793,21.24475 8.593429,22.10409 0.143224,0.19097 0.334189,0.42966 0.572896,0.42966 l 0.04774,0 c 0.429672,0 0.668378,-0.57288 0.76386,-0.85932 4.726387,-9.97788 7.87731,-21.10154 7.87731,-22.15184 0,-1.19353 -1.098049,-1.09804 -3.150923,-1.33675 -0.859343,-0.0955 -0.954826,-0.52516 -0.954826,-1.09804 0,-0.57289 0.143225,-1.05031 0.859344,-1.05031 0.477412,0 1.90965,0.14323 4.821868,0.14323 l 0.04774,0 c 2.20332,0 3.550195,-0.0869 4.264888,-0.12507 l 0,-23.77727 c 6e-6,-1.19902 -0.965259,-2.16428 -2.164265,-2.16428 l -57.6714575,0 z M 1,454.80807 1,483.47009 c 0.1049055,-0.15748 0.2486864,-0.29027 0.4455852,-0.35085 1.050308,-0.33418 3.2941478,0.0478 4.058008,-1.52771 0.2387069,-0.5729 0.1909656,-0.42966 1.3367559,-22.43828 l 0,-0.14323 0,-0.0477 c 0,-0.42967 -0.04774,-0.71612 -1.575462,-2.10061 -0.334189,-0.33418 -1.6232033,-1.86189 -4.2489733,-2.05286 -0.00545,0 -0.010488,-6.2e-4 -0.015913,-6.2e-4 z m 8.3706362,6.39805 c -0.095485,0 -0.1432231,0.14321 -0.1909645,0.19096 -0.3819302,5.5857 -0.6206366,11.12365 -0.6206366,16.94806 l 0,1.38449 c 0,2.48253 0.1432237,2.95994 2.1483569,3.10316 0.620636,0 2.578029,0.23871 2.912217,0.3342 0.190966,0.0955 0.620638,0.2387 0.620638,1.24126 0,0.52515 -0.286448,0.90709 -0.811602,0.90709 -0.190966,0 -2.721253,-0.28646 -5.8244353,-0.28646 -3.1509242,0 -5.6334705,0.28646 -5.8721768,0.28646 -0.2953816,0 -0.5520617,-0.10212 -0.7320329,-0.279 l 0,23.7994 C 1,510.03474 1.9652649,511 3.1642711,511 l 57.6714579,0 C 62.034735,511 63,510.03474 63,508.83574 l 0,-31.71023 c -0.765768,0.0955 -1.689251,0.14639 -2.212012,1.09232 -0.334189,0.62063 -3.676078,11.7443 -11.457906,28.35817 -0.620636,1.38449 -1.145791,2.29157 -1.957392,2.29157 -0.954825,0 -1.575462,-1.33675 -2.005133,-2.53027 -5.681212,-14.37005 -5.63347,-14.46554 -5.872178,-14.46554 -0.09548,0 -0.143223,0.0955 -0.190964,0.19096 -6.492813,16.80485 -6.110884,16.32743 -6.827001,16.66163 -0.143225,0.0955 -0.286449,0.14322 -0.429673,0.14322 -1.050308,0 -1.384497,-1.57546 -1.86191,-2.6735 -6.492812,-15.89776 -9.643736,-27.02142 -10.025666,-28.02399 -0.620638,-1.47996 -2.100617,-0.42966 -2.768994,-1.24126 -0.04774,-0.0477 -0.238707,-0.28644 -0.238707,-0.66837 0,-0.52515 0.238707,-1.33675 1.193533,-1.33675 0.372676,0 1.467291,0.10742 3.556972,0.13601 L 19.9692,472.85492 C 10.325462,462.1132 9.5616019,461.20612 9.3706362,461.20612 Z m 23.6334228,15.92784 c 0.05658,3.71623 0.141732,5.85301 0.141732,6.74914 0,0.66837 0,2.24383 -0.954826,2.24383 -0.477412,0 -1.002566,-0.47741 -2.339322,-2.00513 l -5.10384,-5.81893 c 0.01038,0.19924 0.05514,0.36839 0.138748,0.53559 2.721252,8.54564 3.532854,10.64625 7.447638,21.14928 0.143225,0.38193 0.429672,0.85934 0.716119,0.85934 0.525155,0 0.38193,0 5.108316,-11.93526 0.04774,-0.19097 0.09549,-0.38193 0.09549,-0.57289 l 0,-0.0477 c 0,-0.38192 -0.04774,-0.42967 -3.150926,-9.40497 -0.510324,-1.49172 -0.540017,-1.65993 -2.099122,-1.75225 z"
       id="rect47681"
       inkscape:connector-curvature="0" />
  </g>
</svg>
